<svg id="svg" xmlns="http://www.w3.org/2000/svg" xmlns:xlink="http://www.w3.org/1999/xlink" width="400" height="424.0717029449424" viewBox="0, 0, 400,424.0717029449424"><g id="svgg"><path id="path0" d="M193.854 16.106 C 188.553 17.460,181.429 21.871,172.343 29.423 C 169.245 31.999,166.222 34.441,165.627 34.851 C 162.365 37.096,142.524 57.460,138.937 62.244 C 138.311 63.080,136.813 64.995,135.608 66.499 C 128.286 75.644,117.035 92.264,113.710 98.848 C 112.785 100.679,111.635 102.753,111.155 103.457 C 109.886 105.317,103.299 118.430,101.379 122.919 C 100.475 125.032,98.593 129.411,97.195 132.650 C 90.389 148.427,82.248 175.349,79.385 191.549 C 78.862 194.507,77.696 201.076,76.794 206.146 C 73.870 222.578,74.373 226.703,80.052 232.836 C 84.610 237.759,89.666 240.059,97.194 240.632 L 101.665 240.973 102.011 243.278 C 102.978 249.720,102.470 266.560,101.150 271.761 C 97.775 285.066,92.113 291.838,79.129 298.096 C 46.729 313.713,27.657 349.516,27.657 394.721 C 27.657 409.118,46.499 412.608,52.344 399.293 C 67.174 365.515,85.012 349.906,114.469 344.929 C 134.158 341.602,153.559 330.497,165.255 315.858 L 166.805 313.918 169.137 317.906 C 170.420 320.100,172.769 323.385,174.357 325.207 C 185.339 337.802,181.683 344.246,148.061 371.557 C 140.081 378.039,137.352 380.849,136.857 383.090 C 134.671 393.004,139.883 400.679,148.747 400.598 C 156.556 400.526,177.417 395.580,197.951 388.932 C 204.509 386.810,219.779 378.968,224.840 375.125 C 238.644 364.641,244.012 354.709,245.850 336.249 C 246.491 329.806,246.482 329.826,248.017 331.202 C 252.092 334.855,266.615 343.015,270.679 343.934 C 271.524 344.125,274.025 344.837,276.238 345.517 C 278.450 346.196,284.327 347.571,289.298 348.571 C 307.808 352.297,321.862 360.983,331.904 374.904 C 338.883 384.579,341.523 389.082,346.614 400.000 C 354.379 416.654,372.232 413.595,372.021 395.647 C 371.477 349.296,353.226 316.596,318.451 299.664 C 301.878 291.596,294.666 274.256,297.542 249.400 C 298.576 240.466,297.852 241.396,303.990 241.123 C 312.061 240.764,317.933 237.449,322.205 230.841 C 325.952 225.043,325.915 222.082,321.816 200.000 C 320.822 194.648,319.901 189.462,319.769 188.476 C 319.061 183.186,314.680 167.032,310.673 154.930 C 309.461 151.268,308.302 147.580,308.099 146.735 C 307.608 144.688,301.786 130.438,299.094 124.692 C 297.914 122.173,296.876 119.736,296.788 119.277 C 296.601 118.307,289.622 104.842,288.323 102.945 C 287.841 102.241,286.595 99.992,285.556 97.948 C 282.523 91.985,270.144 73.522,266.241 69.142 C 265.363 68.156,263.430 65.719,261.946 63.727 C 260.462 61.734,258.310 59.128,257.164 57.934 C 256.017 56.741,253.288 53.796,251.099 51.389 C 240.387 39.612,219.817 22.418,211.149 17.996 C 206.304 15.524,199.179 14.746,193.854 16.106 M164.921 179.982 C 174.044 181.916,181.289 185.954,187.861 192.769 C 194.133 199.272,197.061 199.218,203.614 192.479 C 221.390 174.199,249.197 174.860,266.034 193.963 C 269.846 198.288,273.214 204.089,274.298 208.195 C 274.372 208.476,274.854 210.205,275.369 212.036 C 276.871 217.379,276.614 227.330,274.820 233.277 C 265.241 265.035,225.145 274.118,202.832 249.584 C 197.154 243.341,194.309 243.497,187.494 250.428 C 160.590 277.788,114.779 259.553,114.732 221.465 C 114.714 206.817,124.021 190.622,135.796 184.810 C 146.070 179.740,156.008 178.092,164.921 179.982 M151.983 200.275 C 126.851 206.527,132.575 244.530,158.361 242.628 C 172.392 241.593,184.656 224.840,171.382 224.840 C 161.601 224.840,156.132 214.612,162.113 207.504 C 166.415 202.392,160.484 198.160,151.983 200.275 M228.888 200.716 C 216.677 204.623,210.408 218.605,215.660 230.218 C 216.297 231.626,216.837 232.899,216.860 233.047 C 217.020 234.075,222.790 239.575,224.617 240.442 C 233.371 244.596,244.086 243.061,250.014 236.802 C 256.291 230.176,256.199 224.844,249.808 224.837 C 239.340 224.826,234.210 214.992,240.605 207.199 C 244.928 201.932,237.659 197.910,228.888 200.716 " stroke="none" fill="white" fill-rule="evenodd"></path></g></svg>