<svg xmlns="http://www.w3.org/2000/svg" version="1.1" xmlns:xlink="http://www.w3.org/1999/xlink" xmlns:svgjs="http://svgjs.dev/svgjs" width="2000" height="1252" viewBox="0 0 2000 1252"><g transform="matrix(1,0,0,1,-1.2121212121212466,-2.01935483870966)"><svg viewBox="0 0 396 248" data-background-color="#ffffff" preserveAspectRatio="xMidYMid meet" height="1252" width="2000" xmlns="http://www.w3.org/2000/svg" xmlns:xlink="http://www.w3.org/1999/xlink"><g id="tight-bounds" transform="matrix(1,0,0,1,0.2400000000000091,0.4000000000000057)"><svg viewBox="0 0 395.52 247.2" height="247.2" width="395.52"><g><svg></svg></g><g><svg viewBox="0 0 395.52 247.2" height="247.2" width="395.52"><g transform="matrix(1,0,0,1,87.68935214238628,47.215199999999996)"><svg viewBox="0 0 220.14129571522741 152.7696" height="152.7696" width="220.14129571522741"><g><svg viewBox="0 0 220.14129571522741 152.7696" height="152.7696" width="220.14129571522741"><g><svg viewBox="0 0 220.14129571522741 152.7696" height="152.7696" width="220.14129571522741"><g><svg viewBox="0 0 220.14129571522741 152.7696" height="152.7696" width="220.14129571522741"><g id="textblocktransform"><svg viewBox="0 0 220.14129571522741 152.7696" height="152.7696" width="220.14129571522741" id="textblock"><g><svg viewBox="0 0 220.14129571522741 152.7696" height="152.7696" width="220.14129571522741"><g transform="matrix(1,0,0,1,0,0)"><svg width="220.14129571522741" viewBox="2.54 -36.55 53.37 37.04" height="152.7696" data-palette-color="#2a2c35"><path d="M9.2-14.94L9.2 0 2.54 0 2.54-26.15 4.15-26.15 6.35-23.61Q7.96-25.07 10-25.87 12.04-26.66 14.26-26.66L14.26-26.66Q16.65-26.66 18.77-25.74 20.9-24.83 22.49-23.23 24.07-21.63 24.99-19.49 25.9-17.36 25.9-14.94L25.9-14.94 25.9 0 19.24 0 19.24-14.94Q19.24-15.97 18.85-16.88 18.46-17.8 17.77-18.48 17.09-19.17 16.19-19.56 15.28-19.95 14.26-19.95L14.26-19.95Q13.21-19.95 12.28-19.56 11.35-19.17 10.67-18.48 9.99-17.8 9.59-16.88 9.2-15.97 9.2-14.94L9.2-14.94ZM55.91-36.55L55.91 0 54.29 0 51.71-3.59Q50.75-2.73 49.69-1.99 48.63-1.25 47.46-0.7 46.29-0.15 45.05 0.17 43.82 0.49 42.55 0.49L42.55 0.49Q39.79 0.49 37.36-0.55 34.93-1.59 33.12-3.43 31.3-5.27 30.25-7.8 29.2-10.33 29.2-13.31L29.2-13.31Q29.2-16.26 30.25-18.8 31.3-21.34 33.12-23.19 34.93-25.05 37.36-26.1 39.79-27.15 42.55-27.15L42.55-27.15Q43.43-27.15 44.37-27 45.31-26.86 46.2-26.53 47.09-26.2 47.87-25.66 48.65-25.12 49.19-24.34L49.19-24.34 49.19-36.55 55.91-36.55ZM49.19-13.31L49.19-13.31Q49.19-14.67 48.67-15.95 48.14-17.24 47.24-18.23 46.34-19.21 45.13-19.81 43.92-20.41 42.55-20.41L42.55-20.41Q41.18-20.41 39.98-19.92 38.77-19.43 37.88-18.52 36.98-17.6 36.47-16.28 35.96-14.97 35.96-13.31L35.96-13.31Q35.96-11.87 36.47-10.57 36.98-9.28 37.88-8.3 38.77-7.32 39.98-6.76 41.18-6.2 42.55-6.2L42.55-6.2Q43.92-6.2 45.13-6.8 46.34-7.4 47.24-8.39 48.14-9.38 48.67-10.66 49.19-11.94 49.19-13.31Z" opacity="1" transform="matrix(1,0,0,1,0,0)" fill="#2a2c35" class="wordmark-text-0" data-fill-palette-color="primary" id="text-0"></path></svg></g></svg></g></svg></g></svg></g></svg></g></svg></g></svg></g><path d="M269.991 41.215L269.991 0 22.791 0 22.791 247.2 269.991 247.2 269.991 205.985 256.214 205.985 256.214 233.423 36.568 233.423 36.568 13.777 256.214 13.777 256.214 41.215Z" fill="#2a2c35" stroke="transparent" data-fill-palette-color="tertiary"></path></svg></g><defs></defs></svg><rect width="395.52" height="247.2" fill="none" stroke="none" visibility="hidden"></rect></g></svg></g></svg>