<svg xmlns="http://www.w3.org/2000/svg" version="1.1" xmlns:xlink="http://www.w3.org/1999/xlink" xmlns:svgjs="http://svgjs.dev/svgjs" width="2000" height="1252" viewBox="0 0 2000 1252"><g transform="matrix(1,0,0,1,-1.2121212121212466,-2.01935483870966)"><svg viewBox="0 0 396 248" data-background-color="#e0ded5" preserveAspectRatio="xMidYMid meet" height="1252" width="2000" xmlns="http://www.w3.org/2000/svg" xmlns:xlink="http://www.w3.org/1999/xlink"><g id="tight-bounds" transform="matrix(1,0,0,1,0.2400000000000091,0.4000000000000057)"><svg viewBox="0 0 395.52 247.2" height="247.2" width="395.52"><g><svg></svg></g><g><svg viewBox="0 0 395.52 247.2" height="247.2" width="395.52"><g transform="matrix(1,0,0,1,39.55200000000002,37.08)"><svg viewBox="0 0 316.41599999999994 173.04" height="173.04" width="316.41599999999994"><g><svg viewBox="0 0 316.41599999999994 173.04" height="173.04" width="316.41599999999994"><g><svg viewBox="0 0 316.41599999999994 173.04" height="173.04" width="316.41599999999994"><g id="textblocktransform"><svg viewBox="0 0 316.41599999999994 173.04" height="173.04" width="316.41599999999994" id="textblock"><g><svg viewBox="0 0 316.41599999999994 173.04" height="173.04" width="316.41599999999994"><g transform="matrix(1,0,0,1,0,0)"><svg width="316.41599999999994" viewBox="4.52 -40.5 74.99000000000001 41.01" height="173.04" data-palette-color="#243cfc"><path d="M4.52 0L4.52-28.81 11.74-28.81 11.74-26.37Q14.62-28 17.25-28.66 19.87-29.32 22.39-29.32L22.39-29.32Q25.68-29.32 28.49-28.36 31.3-27.39 33.35-25.49 35.4-23.58 36.56-20.74 37.72-17.9 37.72-14.16L37.72-14.16 37.72 0 30.52 0 30.52-12.99Q30.52-15.36 29.85-17.22 29.17-19.09 27.92-20.37 26.66-21.66 24.87-22.33 23.07-23 20.85-23L20.85-23Q19.68-23 18.44-22.75 17.21-22.51 16.03-22.06 14.84-21.61 13.75-20.94 12.65-20.26 11.74-19.41L11.74-19.41 11.74 0 4.52 0ZM44.36-14.28L44.36-14.28Q44.36-17.72 45.65-20.5 46.95-23.27 49.23-25.23 51.51-27.2 54.65-28.26 57.79-29.32 61.45-29.32L61.45-29.32Q63.01-29.32 64.54-29.13 66.06-28.93 67.47-28.59 68.87-28.25 70.1-27.77 71.34-27.29 72.29-26.73L72.29-26.73 72.29-40.5 79.51-40.5 79.51 0 72.29 0 72.29-2.71Q71.34-2.05 70.04-1.46 68.75-0.88 67.26-0.44 65.77 0 64.17 0.26 62.57 0.51 61.01 0.51L61.01 0.51Q57.35 0.51 54.28-0.56 51.22-1.64 49.02-3.59 46.82-5.54 45.59-8.26 44.36-10.99 44.36-14.28ZM51.95-14.28L51.95-14.28Q51.95-12.55 52.65-11.01 53.34-9.47 54.65-8.31 55.95-7.15 57.8-6.48 59.64-5.81 61.94-5.81L61.94-5.81Q63.4-5.81 64.87-6.09 66.33-6.37 67.69-6.88 69.04-7.4 70.22-8.13 71.41-8.86 72.29-9.77L72.29-9.77 72.29-19.75Q71.19-20.63 69.97-21.24 68.75-21.85 67.48-22.24 66.21-22.63 64.91-22.81 63.62-23 62.4-23L62.4-23Q59.91-23 57.97-22.33 56.03-21.66 54.7-20.48 53.37-19.31 52.66-17.72 51.95-16.14 51.95-14.28Z" opacity="1" transform="matrix(1,0,0,1,0,0)" fill="#ffffff" class="wordmark-text-0" data-fill-palette-color="primary" id="text-0"></path></svg></g></svg></g></svg></g></svg></g><g></g></svg></g></svg></g><g><path d="M0 247.2v-247.2h395.52v247.2zM379.915 231.595v-215.99h-364.31v215.99z" fill="#ffffff" fill-rule="nonzero" stroke="none" stroke-width="1" stroke-linecap="butt" stroke-linejoin="miter" stroke-miterlimit="10" stroke-dasharray="" stroke-dashoffset="0" font-family="none" font-weight="none" font-size="none" text-anchor="none" style="mix-blend-mode: normal" data-fill-palette-color="tertiary"></path></g></svg></g><defs></defs></svg><rect width="395.52" height="247.2" fill="none" stroke="none" visibility="hidden"></rect></g></svg></g></svg>